<?xml version="1.0" encoding="UTF-8"?>
<svg version="1.1" xmlns="http://www.w3.org/2000/svg" width="259" height="196">
<path d="M0 0 C7.66340784 6.19979561 10.11921179 15.52787052 11.3125 24.9375 C15.166638 61.72236547 7.91072225 102.14107731 -2.8984375 137.30078125 C-4.09513249 140.67617831 -4.09513249 140.67617831 -4 143 C85.79027779 177.26936105 85.79027779 177.26936105 177.6875 171.625 C185.29959553 167.30978196 188.45269624 161.77387846 192 154 C193.921875 154.3671875 193.921875 154.3671875 196 155 C198.3171934 158.93922877 198.44111922 162.51528791 198 167 C195.77363516 175.15889391 191.81704362 182.09647524 184.453125 186.53515625 C144.57539799 205.85445055 85.02603928 183.28236079 45.82910156 169.91894531 C38.51619586 167.37744899 31.25326756 164.70632237 24 162 C22.99126831 161.62403687 22.99126831 161.62403687 21.9621582 161.24047852 C11.96683442 157.51469191 1.98025056 153.76596944 -8 150 C-8.13341797 150.77037598 -8.26683594 151.54075195 -8.40429688 152.33447266 C-10.19152648 160.33159265 -17.43142571 166.87444817 -23.7265625 171.66015625 C-30.72561993 175.7850303 -38.09916781 175.71993564 -46 175 C-52.01383118 173.32713851 -56.54179762 168.00169384 -60 163 C-61.50798874 158.51090056 -61.94734011 153.54855085 -60.28125 149.06640625 C-57.53891896 143.92453555 -54.39989524 140.85492451 -48.9296875 138.90625 C-44.44480569 137.68843074 -40.05591483 137.74356844 -35.4375 137.8125 C-34.61314453 137.81314453 -33.78878906 137.81378906 -32.93945312 137.81445312 C-28.5206541 137.84624305 -24.34851642 138.11902017 -20 139 C-11.80857767 108.29360681 -6.67104468 77.17657477 -6.5625 45.375 C-6.5532399 44.22795593 -6.5532399 44.22795593 -6.54379272 43.05773926 C-6.07013002 24.15975035 -6.07013002 24.15975035 -14 8 C-17.39969811 6.6690684 -17.39969811 6.6690684 -21 7 C-24.33575079 9.37208945 -25.73260204 11.39227737 -27.375 15.125 C-28.41046591 21.54488865 -28.15916542 27.39187781 -25.5 33.375 C-22.60049584 36.41947936 -19.73676626 37.92612571 -15.92578125 39.62890625 C-14 41 -14 41 -13.23046875 43.65234375 C-13.15441406 44.42707031 -13.07835937 45.20179687 -13 46 C-14.625 47.625 -14.625 47.625 -17 49 C-22.41268449 48.39859061 -25.10557763 45.22721621 -28.390625 41.22265625 C-34.57421103 32.6827037 -35.70255703 24.40579758 -35 14 C-33.81017267 6.91561523 -30.60463302 2.41349177 -25 -2 C-17.45048815 -6.6929398 -7.20799006 -4.20258244 0 0 Z M-51.73828125 151.32421875 C-53.29293913 153.14262263 -53.29293913 153.14262263 -53.75 156.5625 C-52.7922057 160.95239054 -51.70141638 162.45527624 -48 165 C-42.31748772 165.93155939 -38.68894655 165.02273685 -33.9609375 161.76171875 C-29.36863476 157.63596469 -25.12633406 152.17345121 -24 146 C-34.4791362 143.15820035 -43.37998698 143.47248777 -51.73828125 151.32421875 Z " fill="#FBFBFB" transform="translate(61,4)"/>
<path d="M0 0 C2.17010889 0.00315847 4.33884775 -0.02037104 6.50878906 -0.0456543 C17.57379783 -0.09580499 28.52846014 0.74432105 37.80566406 7.31567383 C41.81639608 11.64304259 43.20206043 15.05389775 43.07128906 21.01489258 C41.48447103 34.75953703 29.23061863 44.04344797 19.98535156 53.19848633 C19.08245392 54.09759735 18.17955627 54.99670837 17.2492981 55.92306519 C14.3955301 58.76473794 11.53862932 61.60322432 8.68066406 64.44067383 C4.90412663 68.19017464 1.13131203 71.9433743 -2.63964844 75.69848633 C-3.49398468 76.54452423 -4.34832092 77.39056213 -5.22854614 78.26223755 C-9.57217368 82.58817979 -13.76386634 86.97797535 -17.74951172 91.63713074 C-19.7807949 93.99700006 -21.93179734 96.23968599 -24.06933594 98.50317383 C-29.76037642 104.7258429 -35.40550422 111.7380104 -39.19433594 119.31567383 C-37.63875977 119.33754761 -37.63875977 119.33754761 -36.05175781 119.35986328 C-32.12257108 119.41880568 -28.19390168 119.49601014 -24.26513672 119.578125 C-22.58000217 119.61093151 -20.89476936 119.63909343 -19.20947266 119.66210938 C9.90828988 120.07014004 9.90828988 120.07014004 16.72949219 125.75048828 C18.80566406 128.31567383 18.80566406 128.31567383 19.11816406 131.12817383 C19.01503906 131.85004883 18.91191406 132.57192383 18.80566406 133.31567383 C14.80566406 133.31567383 14.80566406 133.31567383 13.24316406 131.87817383 C12.76878906 131.36254883 12.29441406 130.84692383 11.80566406 130.31567383 C8.46612655 129.20249466 5.95267567 129.18629482 2.43457031 129.18286133 C1.14663574 129.18108887 -0.14129883 129.17931641 -1.46826172 129.17749023 C-2.85612054 129.18164021 -4.24397864 129.18603944 -5.63183594 129.19067383 C-6.32774841 129.19089539 -7.02366089 129.19111694 -7.74066162 129.19134521 C-17.25082402 129.19490923 -26.73150691 129.36440408 -36.21557617 130.13549805 C-40.41191334 130.4337432 -43.44483327 130.3125354 -47.19433594 128.31567383 C-48.85237557 126.65763419 -48.52395198 124.78835228 -48.63183594 122.50317383 C-48.47781294 110.58179419 -40.32245625 101.22582422 -33.19433594 92.31567383 C-32.48277344 91.41075195 -31.77121094 90.50583008 -31.03808594 89.57348633 C-25.57825653 82.74869957 -19.7125892 76.35156748 -13.74267578 69.97729492 C-12.21230242 68.33495479 -10.69532858 66.68131499 -9.18261719 65.02270508 C-4.19542247 59.56104324 0.85990319 54.20540811 6.11816406 49.00317383 C10.55880444 44.59926799 14.84273846 40.1573351 18.80566406 35.31567383 C19.21623047 34.82421875 19.62679687 34.33276367 20.04980469 33.82641602 C21.44364606 32.14842244 22.8140298 30.45337506 24.18066406 28.75317383 C24.6223291 28.22280518 25.06399414 27.69243652 25.51904297 27.14599609 C28.56360024 23.27982542 29.47363756 20.19154456 29.80566406 15.31567383 C20.5519889 9.16341257 8.41126955 10.10298987 -2.31933594 10.00317383 C-3.40303467 9.98552979 -4.4867334 9.96788574 -5.60327148 9.94970703 C-14.79361844 9.95736275 -24.52775529 10.77547152 -32.19433594 16.31567383 C-32.94433594 19.31567383 -32.94433594 19.31567383 -32.19433594 22.31567383 C-30.79302909 24.45142821 -30.79302909 24.45142821 -28.19433594 25.31567383 C-25.38213271 25.45397891 -22.88160731 25.1631121 -20.19433594 24.31567383 C-18.84125281 23.00238726 -17.50563516 21.67068302 -16.19433594 20.31567383 C-12.94433594 20.06567383 -12.94433594 20.06567383 -10.19433594 20.31567383 C-9.50683594 22.12817383 -9.50683594 22.12817383 -9.19433594 24.31567383 C-11.37185016 27.64598969 -14.44244265 28.45997887 -18.19433594 29.31567383 C-29.76139876 30.22473839 -29.76139876 30.22473839 -35.19433594 26.31567383 C-38.32166335 22.64915203 -38.79097071 19.20513908 -38.59667969 14.52661133 C-37.92083313 10.81273608 -36.10177028 8.53700801 -33.19433594 6.31567383 C-22.99924166 0.23474161 -11.54666137 -0.03506071 0 0 Z " fill="#FBFBFB" transform="translate(132.1943359375,19.684326171875)"/>
<path d="M0 0 C0 0.66 0 1.32 0 2 C1.98 1.67 3.96 1.34 6 1 C6.66 2.65 7.32 4.3 8 6 C9.32 6 10.64 6 12 6 C12.62043647 17.61594942 12.62043647 17.61594942 10.375 22.625 C7.12187977 25.87812023 4.52531734 27.89291941 -0.2109375 28.09375 C-3.92397698 27.84703641 -6.60725385 27.20055123 -9.9375 25.5 C-12.87428515 21.94026042 -13.8212277 18.59367078 -14 14 C-12.17972851 7.57551241 -7.35543413 0 0 0 Z " fill="#AE0202" transform="translate(188,136)"/>
<path d="M0 0 C0 0.66 0 1.32 0 2 C1.98 1.67 3.96 1.34 6 1 C6.66 2.65 7.32 4.3 8 6 C9.32 6 10.64 6 12 6 C12.62043647 17.61594942 12.62043647 17.61594942 10.375 22.625 C7.6010539 25.3989461 5.75396254 26.79589881 2 28 C-1.05840425 27.93993314 -3.99441232 27.55436395 -7 27 C-7 26.67 -7 26.34 -7 26 C-5.453125 25.9071875 -5.453125 25.9071875 -3.875 25.8125 C0.92952697 24.80509918 2.53529968 23.38220746 6 20 C7.28446919 17.43106162 7.32977144 15.23423663 7.5625 12.375 C7.64628906 11.37210938 7.73007813 10.36921875 7.81640625 9.3359375 C7.90728516 8.17964844 7.90728516 8.17964844 8 7 C6.35 7.33 4.7 7.66 3 8 C2.01 6.68 1.02 5.36 0 4 C-1.1323975 4.73878339 -2.2556547 5.49158645 -3.375 6.25 C-4.00148437 6.66765625 -4.62796875 7.0853125 -5.2734375 7.515625 C-8.01181425 9.86988555 -8.90138643 11.92695062 -9.23046875 15.5078125 C-9.21628906 16.37148437 -9.20210937 17.23515625 -9.1875 18.125 C-9.18105469 18.99382812 -9.17460937 19.86265625 -9.16796875 20.7578125 C-9.1397507 23.0364545 -9.1397507 23.0364545 -8 25 C-10.49500639 24.03567238 -11.73953536 23.53509681 -12.93359375 21.08203125 C-14.18587317 15.44192006 -14.07183442 12.1527545 -11 7 C-4.77777778 0 -4.77777778 0 0 0 Z " fill="#D92E32" transform="translate(188,136)"/>
<path d="M0 0 C0.99 1.32 1.98 2.64 3 4 C2.443125 4.391875 1.88625 4.78375 1.3125 5.1875 C-4.81724433 9.9918942 -6.88987633 13.3948244 -8 21 C-8.66 20.67 -9.32 20.34 -10 20 C-10.35261421 15.04381139 -10.5637327 11.17082946 -8.375 6.625 C-5.74639411 3.71969875 -3.35719049 1.98379438 0 0 Z " fill="#C50B0C" transform="translate(188,139)"/>
<path d="M0 0 C0.86096102 10.7524465 0.86096102 10.7524465 -2.3125 14.5625 C-5 17 -5 17 -8 19 C-8.99 18.67 -9.98 18.34 -11 18 C-9.73046875 16.50260417 -8.4609375 15.00520833 -7.19140625 13.5078125 C-4.98739897 10.7184787 -4.88774781 8.85765328 -4.9375 5.375 C-4.94652344 4.55773437 -4.95554688 3.74046875 -4.96484375 2.8984375 C-4.97644531 2.27195313 -4.98804688 1.64546875 -5 1 C-3 0 -3 0 0 0 Z " fill="#C50B0C" transform="translate(196,143)"/>
</svg>
